<?xml version="1.0" standalone="no"?>
<!DOCTYPE svg PUBLIC "-//W3C//DTD SVG 20010904//EN"
 "http://www.w3.org/TR/2001/REC-SVG-20010904/DTD/svg10.dtd">
<svg version="1.0" xmlns="http://www.w3.org/2000/svg"
 width="512.000000pt" height="512.000000pt" viewBox="0 0 512.000000 512.000000"
 preserveAspectRatio="xMidYMid meet">
<metadata>
Created by potrace 1.14, written by Peter Selinger 2001-2017
</metadata>
<g transform="translate(0.000000,512.000000) scale(0.100000,-0.100000)"
fill="#000000" stroke="none">
<path d="M3904 4161 c3 -4 -48 -22 -112 -41 -64 -18 -148 -43 -187 -56 -110
-34 -214 -66 -233 -69 -9 -2 -17 -4 -17 -5 0 -1 -7 -3 -15 -5 -8 -2 -61 -18
-118 -35 -56 -17 -107 -28 -114 -24 -7 4 -8 3 -4 -4 6 -10 -11 -15 -40 -11 -4
0 -10 -3 -13 -8 -5 -7 -115 -41 -186 -58 -5 -1 -23 -7 -38 -13 -16 -7 -32 -12
-36 -12 -5 0 -50 -13 -101 -30 -51 -16 -96 -29 -99 -28 -3 1 -19 -4 -35 -11
-16 -6 -38 -13 -50 -16 -11 -2 -22 -4 -23 -6 -2 -1 -6 -2 -10 -3 -5 -1 -25 -8
-45 -15 -21 -7 -42 -10 -47 -7 -5 4 -11 2 -13 -4 -2 -7 -228 -79 -298 -94 -8
-2 -22 -6 -30 -10 -18 -7 -145 -46 -179 -53 -18 -5 -22 -3 -16 7 5 9 4 11 -4
6 -6 -4 -9 -11 -6 -16 6 -10 -83 -33 -97 -24 -6 4 -8 3 -5 -3 5 -8 -113 -48
-168 -57 -5 -1 -14 -4 -20 -7 -10 -6 -61 -22 -80 -24 -5 -1 -17 -5 -25 -8 -33
-14 -136 -42 -147 -40 -7 0 -13 -3 -13 -7 0 -4 -15 -10 -32 -14 -18 -4 -70
-18 -115 -33 -72 -22 -84 -30 -97 -58 -15 -31 -18 -117 -4 -109 9 6 164 -145
160 -157 -1 -6 2 -8 7 -5 5 4 41 -24 80 -61 38 -38 104 -99 145 -137 41 -39
72 -74 69 -79 -3 -6 -2 -7 3 -4 12 7 140 -112 136 -125 -1 -5 1 -7 6 -4 5 3
18 -5 29 -17 12 -12 57 -55 102 -96 45 -41 81 -82 82 -90 0 -9 3 -11 5 -5 3 6
43 -25 90 -70 46 -44 123 -117 170 -161 111 -102 124 -117 119 -124 -2 -4 1
-13 7 -21 8 -12 9 -12 4 3 -3 9 -3 17 0 17 14 0 113 -104 107 -113 -3 -6 -1
-7 5 -3 7 4 12 2 12 -3 0 -6 4 -11 9 -11 13 0 91 -76 91 -89 0 -6 4 -10 8 -9
11 4 72 -48 72 -61 0 -6 4 -11 8 -11 15 0 52 -37 45 -44 -3 -3 0 -6 8 -6 8 0
34 -21 58 -45 25 -25 49 -45 53 -45 4 0 8 -7 8 -17 0 -9 3 -14 6 -10 10 10 36
-22 28 -34 -4 -8 -3 -9 5 -5 14 9 113 -83 104 -97 -3 -6 -2 -7 4 -4 13 8 156
-126 146 -138 -4 -4 -3 -5 3 -2 6 3 33 -15 60 -41 27 -26 66 -62 87 -79 36
-32 47 -51 24 -45 -7 2 -8 0 -4 -4 11 -11 38 -14 32 -4 -3 5 -1 11 4 14 5 4
12 2 16 -3 4 -7 15 -7 30 -1 14 5 25 8 25 5 0 -2 11 7 25 21 14 14 25 32 25
40 0 9 5 12 12 8 7 -5 8 -3 3 7 -9 13 -13 33 -17 71 -1 9 -5 15 -9 13 -3 -3
-20 10 -37 28 -17 17 -50 50 -74 72 -23 22 -42 43 -40 48 1 4 -4 7 -10 7 -7 0
-37 24 -65 54 -29 30 -53 52 -53 50 0 -2 -9 4 -19 13 -11 9 -18 20 -15 25 3 4
0 8 -5 8 -6 0 -29 16 -51 37 -31 27 -38 38 -28 45 8 6 5 7 -11 3 -19 -6 -23
-4 -18 9 4 9 3 15 -1 15 -20 -3 -33 2 -27 11 3 6 1 10 -6 10 -15 0 -135 120
-131 132 1 5 -2 7 -7 4 -5 -3 -40 23 -77 59 -37 36 -72 65 -77 65 -5 0 -7 6
-4 13 2 6 10 11 16 9 6 -1 11 2 11 8 0 13 -17 13 -25 0 -4 -6 -11 -8 -16 -4
-5 3 -6 10 -3 16 4 7 2 8 -5 4 -13 -9 -75 49 -67 63 3 5 -2 8 -12 7 -9 0 -16
5 -14 12 1 8 -2 11 -7 8 -5 -3 -19 8 -32 24 -13 16 -30 30 -36 30 -7 0 -13 7
-13 17 0 9 -3 13 -7 10 -8 -9 -34 13 -28 23 3 5 0 12 -6 16 -8 5 -9 3 -4 -7 5
-8 -1 -6 -13 5 -12 10 -19 24 -15 30 3 6 2 8 -2 3 -11 -10 -66 43 -58 56 3 6
1 7 -5 4 -12 -8 -158 129 -154 144 1 6 -2 8 -7 5 -11 -7 -67 44 -63 57 1 5 -2
6 -7 3 -8 -6 -33 16 -28 25 1 2 0 3 -1 2 -9 -4 -51 41 -46 49 3 5 2 8 -3 7
-17 -4 -43 14 -43 29 0 8 -3 13 -6 9 -8 -7 -130 113 -126 125 1 5 -1 7 -6 4
-12 -7 -189 164 -195 189 -4 18 -5 18 -6 1 -1 -15 -4 -16 -16 -6 -8 7 -12 16
-9 21 3 5 -2 9 -11 9 -12 0 -15 5 -11 16 4 12 2 15 -9 11 -8 -4 -17 -2 -20 3
-8 13 56 3 69 -11 8 -8 4 -10 -14 -5 -21 6 -22 5 -7 -4 13 -9 22 -9 32 0 16
13 55 4 55 -13 0 -8 3 -8 8 1 7 10 15 10 38 1 16 -6 43 -13 59 -16 17 -3 32
-8 35 -11 5 -7 43 -12 83 -13 9 0 17 -6 17 -14 0 -19 17 -28 26 -14 4 8 3 9
-4 5 -7 -4 -12 -2 -12 4 0 6 8 9 18 6 9 -3 34 -8 55 -12 20 -3 37 -10 37 -14
0 -5 9 -6 20 -3 18 5 25 -5 21 -29 0 -5 4 -8 10 -8 6 0 9 7 5 15 -4 10 1 15
14 15 11 0 20 -5 20 -11 0 -5 -6 -7 -12 -3 -10 6 -10 5 -1 -8 7 -8 12 -17 10
-19 -1 -2 0 -3 3 -1 3 2 5 9 5 15 0 7 9 13 19 15 14 3 17 0 13 -12 -3 -8 -2
-18 4 -21 5 -4 9 -3 8 2 -4 22 2 25 16 7 15 -18 15 -18 8 0 -5 15 -3 17 8 10
8 -4 22 -7 32 -6 9 2 17 -2 17 -8 0 -6 4 -9 9 -6 16 10 71 -6 71 -20 0 -8 5
-14 11 -14 5 0 7 5 4 10 -3 6 1 10 10 10 12 0 15 -5 11 -16 -5 -14 -4 -15 9
-4 9 7 22 9 32 5 10 -5 25 -9 33 -9 8 -1 14 -7 12 -13 -1 -7 2 -13 7 -13 5 0
11 6 14 13 3 9 9 9 23 1 11 -6 27 -10 37 -8 9 1 17 -4 17 -12 0 -8 5 -14 11
-14 5 0 7 5 4 10 -3 6 1 10 9 10 9 0 16 -5 16 -11 0 -5 5 -7 10 -4 6 3 10 1
10 -5 0 -6 5 -8 11 -5 12 8 139 -16 139 -26 0 -4 9 -5 20 -2 16 4 19 2 14 -12
-6 -15 -5 -16 16 -3 18 10 24 10 27 0 3 -6 9 -10 14 -7 5 3 26 1 46 -4 36 -10
78 -19 97 -20 4 -1 6 -8 3 -16 -4 -8 -2 -17 4 -20 5 -4 8 -1 7 6 -4 18 42 20
49 2 5 -12 7 -12 14 -1 6 8 12 9 17 3 4 -6 15 -11 25 -12 51 -2 58 -4 54 -10
-3 -5 10 -9 29 -10 56 -3 68 -5 82 -16 6 -5 12 -7 12 -4 0 3 17 1 38 -5 20 -5
53 -11 72 -14 19 -3 43 -15 53 -27 10 -13 15 -15 12 -6 -5 13 0 15 25 11 24
-3 30 -8 25 -21 -5 -13 -4 -13 6 -4 10 10 15 9 26 -5 12 -16 13 -16 6 2 -5 15
-3 17 8 10 8 -4 22 -7 32 -6 9 2 17 -1 17 -5 0 -5 14 -10 32 -11 18 -2 36 -8
40 -15 6 -9 8 -9 8 2 0 11 3 11 15 1 8 -7 15 -10 15 -7 0 3 15 1 33 -4 17 -5
45 -12 62 -15 16 -3 32 -8 35 -12 4 -7 16 -9 82 -12 9 -1 19 -8 22 -16 3 -8
11 -14 18 -14 9 0 8 3 -2 10 -13 8 -12 10 3 10 15 0 22 -18 18 -43 -1 -5 3 -6
8 -2 6 3 8 12 4 20 -3 9 1 15 10 15 8 0 18 -6 20 -12 4 -10 6 -10 6 0 1 6 6
12 12 12 5 0 7 -6 4 -12 -4 -7 -1 -6 7 3 7 8 20 18 28 21 9 3 22 18 30 34 8
16 19 32 25 36 6 5 5 8 -2 8 -7 0 -12 3 -12 8 5 30 -40 96 -66 97 -15 1 -97
16 -118 21 -10 3 -14 11 -11 17 5 9 4 9 -5 1 -11 -10 -27 -7 -201 37 -8 2 -18
9 -22 14 -5 6 -8 6 -8 -2 0 -6 -9 -9 -20 -6 -11 3 -18 8 -16 12 2 3 -16 7 -41
9 -25 1 -51 6 -57 9 -6 4 -18 8 -26 10 -8 1 -31 5 -50 8 -19 4 -35 6 -35 5 0
-1 -13 4 -30 10 -16 7 -39 13 -50 16 -112 21 -145 29 -145 35 0 4 -7 6 -16 5
-9 -2 -51 6 -93 16 -42 11 -83 21 -91 23 -8 2 -15 4 -15 5 0 1 -9 3 -20 5 -21
3 -108 22 -135 29 -8 3 -23 5 -33 5 -11 1 -15 6 -11 13 4 6 3 8 -4 4 -16 -10
-93 5 -85 17 3 6 1 7 -5 3 -14 -9 -152 23 -152 35 0 5 -5 9 -11 9 -5 0 -7 -5
-3 -12 4 -7 3 -8 -4 -4 -10 6 -161 43 -207 50 -11 2 -38 9 -60 14 -41 11 -100
24 -100 23 0 -1 -22 5 -50 14 -27 8 -60 15 -72 15 -13 0 -23 5 -23 11 0 5 -4
8 -8 5 -11 -6 -152 25 -147 33 2 4 -8 6 -23 5 -39 -1 -156 32 -160 46 -3 8 0
10 8 5 9 -6 11 -4 5 5 -6 10 -10 10 -20 -3 -9 -13 -14 -14 -25 -4 -10 10 -11
9 -5 -3 8 -13 6 -13 -8 -2 -9 8 -21 11 -26 8 -5 -4 -13 -1 -16 5 -4 5 -14 8
-22 5 -8 -3 -11 -1 -8 5 4 5 15 7 26 4 12 -4 19 -2 19 7 0 8 3 9 8 3 4 -6 18
-12 32 -13 18 -1 21 1 10 8 -8 5 -18 6 -22 4 -4 -3 -8 0 -8 6 0 8 11 9 33 5
25 -5 29 -4 17 5 -12 10 -11 11 8 7 12 -3 22 -2 22 3 0 8 81 33 106 33 8 0 14
4 14 10 0 5 6 7 13 4 6 -2 26 2 43 9 17 7 34 10 38 7 3 -4 6 0 6 7 0 7 3 10 6
7 4 -3 16 -2 27 4 15 9 18 8 12 -3 -3 -7 1 -4 9 6 14 17 16 17 16 4 0 -9 4
-19 9 -22 5 -4 7 3 4 14 -3 11 -1 20 5 20 6 0 13 -8 15 -17 3 -13 5 -11 6 6 0
13 4 21 8 18 3 -4 13 -1 21 6 13 10 15 9 9 -5 -3 -10 -1 -20 6 -24 7 -4 9 -4
5 1 -8 9 11 50 19 41 3 -3 14 -1 25 5 14 7 23 7 34 -2 12 -10 13 -9 8 7 -4 10
-4 16 1 12 4 -4 13 -3 20 2 7 5 27 12 46 14 19 3 35 6 37 7 1 1 5 2 10 3 4 1
13 5 21 10 9 6 18 3 27 -8 8 -11 14 -13 19 -7 3 6 1 11 -4 11 -20 0 -11 19 11
26 15 4 26 1 36 -12 13 -19 13 -19 10 0 -2 10 3 21 11 24 9 3 11 0 6 -8 -5 -9
-4 -11 4 -6 6 4 18 3 25 -3 9 -8 13 -7 13 4 0 8 -4 12 -8 9 -4 -2 -10 -1 -13
4 -3 4 13 13 34 19 29 7 38 7 33 -1 -4 -6 2 -4 13 5 26 22 81 36 68 17 -5 -8
-2 -6 7 4 9 9 19 14 23 11 3 -4 6 -1 6 6 0 9 8 11 26 7 17 -5 23 -3 19 4 -4 6
6 10 24 10 17 0 31 4 31 9 0 6 9 8 20 6 11 -2 20 1 20 7 0 6 9 8 20 5 10 -3
21 0 23 6 2 7 9 7 18 2 21 -14 39 -15 39 -3 0 6 -7 8 -15 4 -8 -3 -15 -2 -15
2 0 4 16 12 35 18 24 8 32 8 28 0 -4 -6 4 -2 17 9 l23 20 -6 -20 c-6 -18 -6
-19 6 -3 11 14 16 15 26 5 10 -9 11 -8 6 5 -5 13 -1 16 19 14 14 -2 23 0 21 4
-3 4 7 11 22 15 20 5 31 2 41 -12 13 -17 14 -16 7 6 -6 21 -5 23 14 18 14 -3
19 -1 14 6 -4 6 0 8 10 4 9 -3 17 -1 19 5 2 6 20 11 40 12 20 0 34 4 32 8 -4
6 53 22 81 23 6 0 16 6 23 12 10 10 16 10 27 0 7 -6 10 -16 7 -21 -3 -5 0 -6
7 -2 8 6 9 12 2 20 -8 10 -1 16 30 25 23 7 47 15 54 17 7 3 20 -2 29 -11 9 -9
16 -13 16 -8 0 5 -5 14 -12 21 -9 9 -8 12 5 12 25 0 24 0 61 15 19 8 42 12 50
9 9 -3 16 -2 16 4 0 12 88 35 102 26 6 -4 8 -3 5 3 -4 6 0 14 9 17 12 5 15 2
10 -11 -6 -17 -5 -17 8 0 9 12 16 14 21 8 3 -6 12 -11 18 -10 9 0 9 2 0 6 -7
2 -13 9 -13 14 0 6 4 8 9 4 5 -3 12 -1 16 4 3 6 12 8 20 4 8 -3 15 -1 15 4 0
5 8 9 18 10 9 1 24 3 32 5 9 2 14 -3 12 -12 -2 -8 0 -11 5 -7 4 5 8 14 8 20 0
7 5 12 10 13 6 0 18 4 28 8 9 5 24 5 33 2 9 -4 13 -2 8 5 -4 7 -1 10 6 7 19
-6 74 51 78 80 5 37 -16 88 -41 99 -38 17 -87 32 -83 24z"/>
<path d="M3980 3946 c0 -2 8 -10 18 -17 15 -13 16 -12 3 4 -13 16 -21 21 -21
13z"/>
<path d="M3925 3920 c3 -5 8 -10 11 -10 2 0 4 5 4 10 0 6 -5 10 -11 10 -5 0
-7 -4 -4 -10z"/>
<path d="M3893 3905 c0 -8 4 -12 9 -9 5 3 6 10 3 15 -9 13 -12 11 -12 -6z"/>
<path d="M3819 3908 c-7 -23 -4 -35 7 -35 9 0 11 4 4 12 -5 7 -7 15 -3 18 3 4
3 7 0 7 -4 0 -7 -1 -8 -2z"/>
<path d="M3773 3865 c0 -8 4 -12 9 -9 5 3 6 10 3 15 -9 13 -12 11 -12 -6z"/>
<path d="M3606 3841 c8 -9 44 -11 44 -3 0 4 -11 8 -25 8 -13 0 -22 -2 -19 -5z"/>
<path d="M3660 3846 c0 -2 8 -10 18 -17 15 -13 16 -12 3 4 -13 16 -21 21 -21
13z"/>
<path d="M3696 3838 c3 -4 11 -5 19 -1 21 7 19 12 -4 10 -11 0 -18 -5 -15 -9z"/>
<path d="M3530 3820 c0 -5 5 -10 11 -10 5 0 7 5 4 10 -3 6 -8 10 -11 10 -2 0
-4 -4 -4 -10z"/>
<path d="M3495 3809 c-4 -6 -5 -12 -2 -15 2 -3 7 2 10 11 7 17 1 20 -8 4z"/>
<path d="M3513 3787 c0 -8 6 -14 14 -14 9 0 10 4 2 14 -6 7 -12 13 -14 13 -1
0 -2 -6 -2 -13z"/>
<path d="M3396 3773 c-6 -14 -5 -15 5 -6 7 7 10 15 7 18 -3 3 -9 -2 -12 -12z"/>
<path d="M3395 3740 c3 -5 8 -10 11 -10 2 0 4 5 4 10 0 6 -5 10 -11 10 -5 0
-7 -4 -4 -10z"/>
<path d="M3195 3720 c-5 -8 62 -7 69 1 3 2 -11 5 -30 5 -20 0 -37 -3 -39 -6z"/>
<path d="M3360 3720 c-9 -6 -10 -10 -3 -10 6 0 15 5 18 10 8 12 4 12 -15 0z"/>
<path d="M3114 3680 c0 -13 4 -16 10 -10 7 7 7 13 0 20 -6 6 -10 3 -10 -10z"/>
<path d="M3010 3660 c0 -5 5 -10 11 -10 5 0 7 5 4 10 -3 6 -8 10 -11 10 -2 0
-4 -4 -4 -10z"/>
<path d="M2995 3620 c3 -5 8 -10 11 -10 2 0 4 5 4 10 0 6 -5 10 -11 10 -5 0
-7 -4 -4 -10z"/>
<path d="M2735 3540 c3 -5 8 -10 11 -10 2 0 4 5 4 10 0 6 -5 10 -11 10 -5 0
-7 -4 -4 -10z"/>
<path d="M2573 3505 c0 -8 4 -12 9 -9 5 3 6 10 3 15 -9 13 -12 11 -12 -6z"/>
<path d="M2500 3506 c0 -2 8 -10 18 -17 15 -13 16 -12 3 4 -13 16 -21 21 -21
13z"/>
<path d="M2455 3480 c2 -27 10 -33 12 -10 1 11 -2 22 -6 24 -4 3 -7 -4 -6 -14z"/>
<path d="M2330 3460 c0 -5 5 -10 11 -10 5 0 7 5 4 10 -3 6 -8 10 -11 10 -2 0
-4 -4 -4 -10z"/>
<path d="M2413 3435 c0 -8 4 -12 9 -9 5 3 6 10 3 15 -9 13 -12 11 -12 -6z"/>
<path d="M2515 3440 c3 -5 8 -10 11 -10 2 0 4 5 4 10 0 6 -5 10 -11 10 -5 0
-7 -4 -4 -10z"/>
<path d="M2270 3431 c0 -6 4 -13 10 -16 6 -3 7 1 4 9 -7 18 -14 21 -14 7z"/>
<path d="M2195 3420 c-3 -5 -1 -10 4 -10 6 0 11 5 11 10 0 6 -2 10 -4 10 -3 0
-8 -4 -11 -10z"/>
<path d="M2156 3367 c3 -10 9 -15 12 -12 3 3 0 11 -7 18 -10 9 -11 8 -5 -6z"/>
<path d="M1890 3299 c0 -5 5 -7 10 -4 6 3 10 8 10 11 0 2 -4 4 -10 4 -5 0 -10
-5 -10 -11z"/>
<path d="M1700 3276 c0 -2 7 -7 16 -10 8 -3 12 -2 9 4 -6 10 -25 14 -25 6z"/>
<path d="M1813 3255 c0 -8 4 -12 9 -9 5 3 6 10 3 15 -9 13 -12 11 -12 -6z"/>
<path d="M1666 3240 c5 -8 9 -18 9 -22 0 -3 3 -9 7 -13 3 -4 5 0 4 9 -1 9 -8
22 -16 29 -10 10 -11 9 -4 -3z"/>
<path d="M1590 2966 c0 -2 7 -7 16 -10 8 -3 12 -2 9 4 -6 10 -25 14 -25 6z"/>
<path d="M1715 2920 c-3 -5 -1 -10 4 -10 6 0 11 5 11 10 0 6 -2 10 -4 10 -3 0
-8 -4 -11 -10z"/>
<path d="M1919 2893 c-13 -16 -12 -17 4 -4 9 7 17 15 17 17 0 8 -8 3 -21 -13z"/>
<path d="M1670 2861 c0 -6 4 -13 10 -16 6 -3 7 1 4 9 -7 18 -14 21 -14 7z"/>
<path d="M1455 2720 c-3 -5 -1 -10 4 -10 6 0 11 5 11 10 0 6 -2 10 -4 10 -3 0
-8 -4 -11 -10z"/>
<path d="M2850 2696 c0 -2 8 -10 18 -17 15 -13 16 -12 3 4 -13 16 -21 21 -21
13z"/>
<path d="M2890 2681 c0 -6 4 -13 10 -16 6 -3 7 1 4 9 -7 18 -14 21 -14 7z"/>
<path d="M2875 2649 c-4 -6 -5 -12 -2 -15 2 -3 7 2 10 11 7 17 1 20 -8 4z"/>
<path d="M3315 2581 c-3 -5 -2 -12 3 -15 5 -3 9 1 9 9 0 17 -3 19 -12 6z"/>
<path d="M3353 2535 c0 -8 4 -12 9 -9 5 3 6 10 3 15 -9 13 -12 11 -12 -6z"/>
<path d="M2030 2520 c0 -5 5 -10 11 -10 5 0 7 5 4 10 -3 6 -8 10 -11 10 -2 0
-4 -4 -4 -10z"/>
<path d="M3690 2497 c0 -2 6 -10 14 -16 11 -9 16 -9 22 1 4 7 4 10 -1 6 -4 -4
-14 -3 -22 3 -7 6 -13 9 -13 6z"/>
<path d="M3593 2475 c0 -8 4 -12 9 -9 5 3 6 10 3 15 -9 13 -12 11 -12 -6z"/>
<path d="M3836 2438 c3 -5 10 -6 15 -3 13 9 11 12 -6 12 -8 0 -12 -4 -9 -9z"/>
<path d="M2095 2140 c-3 -5 -1 -10 4 -10 6 0 11 5 11 10 0 6 -2 10 -4 10 -3 0
-8 -4 -11 -10z"/>
<path d="M2146 2058 c3 -5 10 -6 15 -3 13 9 11 12 -6 12 -8 0 -12 -4 -9 -9z"/>
<path d="M2836 1782 c-3 -5 1 -9 9 -9 8 0 12 4 9 9 -3 4 -7 8 -9 8 -2 0 -6 -4
-9 -8z"/>
<path d="M2625 1600 c-3 -6 1 -7 9 -4 18 7 21 14 7 14 -6 0 -13 -4 -16 -10z"/>
<path d="M2826 1422 c-3 -5 1 -9 9 -9 8 0 12 4 9 9 -3 4 -7 8 -9 8 -2 0 -6 -4
-9 -8z"/>
<path d="M3389 1203 c-13 -16 -12 -17 4 -4 9 7 17 15 17 17 0 8 -8 3 -21 -13z"/>
<path d="M3319 1093 c-12 -16 -12 -17 2 -6 9 7 20 9 24 5 5 -4 5 -1 1 6 -9 16
-11 15 -27 -5z"/>
</g>
</svg>
