<?xml version="1.0" encoding="UTF-8" standalone="no"?>
<!DOCTYPE svg PUBLIC "-//W3C//DTD SVG 1.1//EN" "http://www.w3.org/Graphics/SVG/1.1/DTD/svg11.dtd">
<svg width="100%" height="100%" viewBox="0 0 2481 3508" version="1.1" xmlns="http://www.w3.org/2000/svg" xmlns:xlink="http://www.w3.org/1999/xlink" xml:space="preserve" xmlns:serif="http://www.serif.com/" style="fill-rule:evenodd;clip-rule:evenodd;stroke-linecap:round;stroke-linejoin:round;stroke-miterlimit:1.5;">
    <g id="_1-Grad" serif:id="1 Grad" transform="matrix(2.45944e-15,-40.1657,0.95122,5.82454e-17,-428.222,99039.9)">
        <g transform="matrix(0.999848,-0.736936,0.000413315,0.999848,-0.356028,1785.21)">
            <path d="M2450.79,1753.94L2393.45,1753.94" style="fill:none;stroke:black;stroke-width:0.04px;"/>
        </g>
        <g transform="matrix(0.999391,-1.47365,0.000826504,0.999391,0.0258529,3570.41)">
            <path d="M2450.79,1753.94L2393.45,1753.94" style="fill:none;stroke:black;stroke-width:0.04px;"/>
        </g>
        <g transform="matrix(0.99863,-2.20991,0.00123944,0.99863,1.14553,5355.06)">
            <path d="M2450.79,1753.94L2393.45,1753.94" style="fill:none;stroke:black;stroke-width:0.04px;"/>
        </g>
        <g transform="matrix(0.997564,-2.9455,0.001652,0.997564,3.00265,7138.62)">
            <path d="M2450.79,1753.94L2393.45,1753.94" style="fill:none;stroke:black;stroke-width:0.04px;"/>
        </g>
        <g transform="matrix(0.996195,-3.68019,0.00206406,0.996195,5.59666,8920.53)">
            <path d="M2450.79,1753.94L2393.45,1753.94" style="fill:none;stroke:black;stroke-width:0.15px;"/>
        </g>
        <g transform="matrix(0.994522,-4.41376,0.00247548,0.994522,8.92677,10700.3)">
            <path d="M2450.79,1753.94L2393.45,1753.94" style="fill:none;stroke:black;stroke-width:0.04px;"/>
        </g>
        <g transform="matrix(0.992546,-5.14599,0.00288616,0.992546,12.992,12477.3)">
            <path d="M2450.79,1753.94L2393.45,1753.94" style="fill:none;stroke:black;stroke-width:0.04px;"/>
        </g>
        <g transform="matrix(0.990268,-5.87665,0.00329595,0.990268,17.791,14251)">
            <path d="M2450.79,1753.94L2393.45,1753.94" style="fill:none;stroke:black;stroke-width:0.04px;"/>
        </g>
        <g transform="matrix(0.987688,-6.60552,0.00370474,0.987688,23.3224,16020.9)">
            <path d="M2450.79,1753.94L2393.45,1753.94" style="fill:none;stroke:black;stroke-width:0.04px;"/>
        </g>
        <g transform="matrix(0.984808,-7.33237,0.0041124,0.984808,29.5845,17786.5)">
            <path d="M2450.79,1753.94L2393.45,1753.94" style="fill:none;stroke:black;stroke-width:0.29px;"/>
        </g>
        <g transform="matrix(0.981627,-8.057,0.00451881,0.981627,36.5754,19547.2)">
            <path d="M2450.79,1753.94L2393.45,1753.94" style="fill:none;stroke:black;stroke-width:0.04px;"/>
        </g>
        <g transform="matrix(0.978148,-8.77917,0.00492385,0.978148,44.2929,21302.5)">
            <path d="M2450.79,1753.94L2393.45,1753.94" style="fill:none;stroke:black;stroke-width:0.04px;"/>
        </g>
        <g transform="matrix(0.97437,-9.49866,0.00532738,0.97437,52.7348,23051.8)">
            <path d="M2450.79,1753.94L2393.45,1753.94" style="fill:none;stroke:black;stroke-width:0.04px;"/>
        </g>
        <g transform="matrix(0.970296,-10.2153,0.00572929,0.970296,61.8984,24794.7)">
            <path d="M2450.79,1753.94L2393.45,1753.94" style="fill:none;stroke:black;stroke-width:0.04px;"/>
        </g>
        <g transform="matrix(0.965926,-10.9288,0.00612945,0.965926,71.781,26530.5)">
            <path d="M2450.79,1753.94L2393.45,1753.94" style="fill:none;stroke:black;stroke-width:0.15px;"/>
        </g>
        <g transform="matrix(0.961262,-11.6389,0.00652775,0.961262,82.3794,28258.8)">
            <path d="M2450.79,1753.94L2393.45,1753.94" style="fill:none;stroke:black;stroke-width:0.04px;"/>
        </g>
        <g transform="matrix(0.956305,-12.3455,0.00692406,0.956305,93.6906,29979)">
            <path d="M2450.79,1753.94L2393.45,1753.94" style="fill:none;stroke:black;stroke-width:0.04px;"/>
        </g>
        <g transform="matrix(0.951057,-13.0484,0.00731826,0.951057,105.711,31690.6)">
            <path d="M2450.79,1753.94L2393.45,1753.94" style="fill:none;stroke:black;stroke-width:0.04px;"/>
        </g>
        <g transform="matrix(0.945519,-13.7473,0.00771023,0.945519,118.437,33393)">
            <path d="M2450.79,1753.94L2393.45,1753.94" style="fill:none;stroke:black;stroke-width:0.04px;"/>
        </g>
        <g transform="matrix(0.939693,-14.442,0.00809986,0.939693,131.865,35085.9)">
            <path d="M2450.79,1753.94L2393.45,1753.94" style="fill:none;stroke:black;stroke-width:0.29px;"/>
        </g>
        <g transform="matrix(0.93358,-15.1323,0.00848701,0.93358,145.99,36768.6)">
            <path d="M2450.79,1753.94L2393.45,1753.94" style="fill:none;stroke:black;stroke-width:0.04px;"/>
        </g>
        <g transform="matrix(0.927184,-15.8179,0.00887158,0.927184,160.809,38440.6)">
            <path d="M2450.79,1753.94L2393.45,1753.94" style="fill:none;stroke:black;stroke-width:0.04px;"/>
        </g>
        <g transform="matrix(0.920505,-16.4988,0.00925345,0.920505,176.317,40101.5)">
            <path d="M2450.79,1753.94L2393.45,1753.94" style="fill:none;stroke:black;stroke-width:0.04px;"/>
        </g>
        <g transform="matrix(0.913545,-17.1746,0.0096325,0.913545,192.508,41750.6)">
            <path d="M2450.79,1753.94L2393.45,1753.94" style="fill:none;stroke:black;stroke-width:0.04px;"/>
        </g>
        <g transform="matrix(0.906308,-17.8453,0.0100086,0.906308,209.379,43387.6)">
            <path d="M2450.79,1753.94L2393.45,1753.94" style="fill:none;stroke:black;stroke-width:0.15px;"/>
        </g>
        <g transform="matrix(0.898794,-18.5104,0.0103817,0.898794,226.924,45011.9)">
            <path d="M2450.79,1753.94L2393.45,1753.94" style="fill:none;stroke:black;stroke-width:0.04px;"/>
        </g>
        <g transform="matrix(0.891007,-19.17,0.0107516,0.891007,245.137,46623)">
            <path d="M2450.79,1753.94L2393.45,1753.94" style="fill:none;stroke:black;stroke-width:0.04px;"/>
        </g>
        <g transform="matrix(0.882948,-19.8237,0.0111182,0.882948,264.014,48220.5)">
            <path d="M2450.79,1753.94L2393.45,1753.94" style="fill:none;stroke:black;stroke-width:0.04px;"/>
        </g>
        <g transform="matrix(0.87462,-20.4713,0.0114815,0.87462,283.548,49803.8)">
            <path d="M2450.79,1753.94L2393.45,1753.94" style="fill:none;stroke:black;stroke-width:0.04px;"/>
        </g>
        <g transform="matrix(0.866025,-21.1127,0.0118412,0.866025,303.733,51372.5)">
            <path d="M2450.79,1753.94L2393.45,1753.94" style="fill:none;stroke:black;stroke-width:0.37px;"/>
        </g>
        <g transform="matrix(0.857167,-21.7477,0.0121973,0.857167,324.564,52926)">
            <path d="M2450.79,1753.94L2393.45,1753.94" style="fill:none;stroke:black;stroke-width:0.04px;"/>
        </g>
        <g transform="matrix(0.848048,-22.3761,0.0125498,0.848048,346.034,54464)">
            <path d="M2450.79,1753.94L2393.45,1753.94" style="fill:none;stroke:black;stroke-width:0.04px;"/>
        </g>
        <g transform="matrix(0.838671,-22.9976,0.0128984,0.838671,368.136,55985.9)">
            <path d="M2450.79,1753.94L2393.45,1753.94" style="fill:none;stroke:black;stroke-width:0.04px;"/>
        </g>
        <g transform="matrix(0.829038,-23.6122,0.013243,0.829038,390.864,57491.3)">
            <path d="M2450.79,1753.94L2393.45,1753.94" style="fill:none;stroke:black;stroke-width:0.04px;"/>
        </g>
        <g transform="matrix(0.819152,-24.2195,0.0135837,0.819152,414.21,58979.7)">
            <path d="M2450.79,1753.94L2393.45,1753.94" style="fill:none;stroke:black;stroke-width:0.15px;"/>
        </g>
        <g transform="matrix(0.809017,-24.8195,0.0139202,0.809017,438.168,60450.7)">
            <path d="M2450.79,1753.94L2393.45,1753.94" style="fill:none;stroke:black;stroke-width:0.04px;"/>
        </g>
        <g transform="matrix(0.798636,-25.4119,0.0142524,0.798636,462.73,61903.8)">
            <path d="M2450.79,1753.94L2393.45,1753.94" style="fill:none;stroke:black;stroke-width:0.04px;"/>
        </g>
        <g transform="matrix(0.788011,-25.9966,0.0145803,0.788011,487.89,63338.6)">
            <path d="M2450.79,1753.94L2393.45,1753.94" style="fill:none;stroke:black;stroke-width:0.04px;"/>
        </g>
        <g transform="matrix(0.777146,-26.5733,0.0149038,0.777146,513.638,64754.6)">
            <path d="M2450.79,1753.94L2393.45,1753.94" style="fill:none;stroke:black;stroke-width:0.04px;"/>
        </g>
        <g transform="matrix(0.766044,-27.142,0.0152227,0.766044,539.968,66151.4)">
            <path d="M2450.79,1753.94L2393.45,1753.94" style="fill:none;stroke:black;stroke-width:0.29px;"/>
        </g>
        <g transform="matrix(0.75471,-27.7024,0.015537,0.75471,566.871,67528.7)">
            <path d="M2450.79,1753.94L2393.45,1753.94" style="fill:none;stroke:black;stroke-width:0.04px;"/>
        </g>
        <g transform="matrix(0.743145,-28.2543,0.0158466,0.743145,594.339,68885.8)">
            <path d="M2450.79,1753.94L2393.45,1753.94" style="fill:none;stroke:black;stroke-width:0.04px;"/>
        </g>
        <g transform="matrix(0.731354,-28.7977,0.0161514,0.731354,622.364,70222.6)">
            <path d="M2450.79,1753.94L2393.45,1753.94" style="fill:none;stroke:black;stroke-width:0.04px;"/>
        </g>
        <g transform="matrix(0.71934,-29.3323,0.0164512,0.71934,650.937,71538.4)">
            <path d="M2450.79,1753.94L2393.45,1753.94" style="fill:none;stroke:black;stroke-width:0.04px;"/>
        </g>
        <g transform="matrix(0.707107,-29.8579,0.016746,0.707107,680.05,72833.1)">
            <path d="M2450.79,1753.94L2393.45,1753.94" style="fill:none;stroke:black;stroke-width:0.15px;"/>
        </g>
        <g transform="matrix(0.694658,-30.3745,0.0170357,0.694658,709.694,74106)">
            <path d="M2450.79,1753.94L2393.45,1753.94" style="fill:none;stroke:black;stroke-width:0.04px;"/>
        </g>
        <g transform="matrix(0.681998,-30.8817,0.0173202,0.681998,739.859,75357)">
            <path d="M2450.79,1753.94L2393.45,1753.94" style="fill:none;stroke:black;stroke-width:0.04px;"/>
        </g>
        <g transform="matrix(0.669131,-31.3796,0.0175994,0.669131,770.536,76585.5)">
            <path d="M2450.79,1753.94L2393.45,1753.94" style="fill:none;stroke:black;stroke-width:0.04px;"/>
        </g>
        <g transform="matrix(0.656059,-31.868,0.0178733,0.656059,801.717,77791.2)">
            <path d="M2450.79,1753.94L2393.45,1753.94" style="fill:none;stroke:black;stroke-width:0.04px;"/>
        </g>
        <g transform="matrix(0.642788,-32.3466,0.0181418,0.642788,833.391,78973.7)">
            <path d="M2450.79,1753.94L2393.45,1753.94" style="fill:none;stroke:black;stroke-width:0.29px;"/>
        </g>
        <g transform="matrix(0.62932,-32.8153,0.0184047,0.62932,865.549,80132.8)">
            <path d="M2450.79,1753.94L2393.45,1753.94" style="fill:none;stroke:black;stroke-width:0.04px;"/>
        </g>
        <g transform="matrix(0.615661,-33.2741,0.018662,0.615661,898.181,81267.9)">
            <path d="M2450.79,1753.94L2393.45,1753.94" style="fill:none;stroke:black;stroke-width:0.04px;"/>
        </g>
        <g transform="matrix(0.601815,-33.7228,0.0189136,0.601815,931.277,82378.8)">
            <path d="M2450.79,1753.94L2393.45,1753.94" style="fill:none;stroke:black;stroke-width:0.04px;"/>
        </g>
        <g transform="matrix(0.587785,-34.1611,0.0191595,0.587785,964.828,83465.2)">
            <path d="M2450.79,1753.94L2393.45,1753.94" style="fill:none;stroke:black;stroke-width:0.04px;"/>
        </g>
        <g transform="matrix(0.573576,-34.5891,0.0193995,0.573576,998.822,84526.7)">
            <path d="M2450.79,1753.94L2393.45,1753.94" style="fill:none;stroke:black;stroke-width:0.15px;"/>
        </g>
        <g transform="matrix(0.559193,-35.0065,0.0196336,0.559193,1033.25,85563)">
            <path d="M2450.79,1753.94L2393.45,1753.94" style="fill:none;stroke:black;stroke-width:0.04px;"/>
        </g>
        <g transform="matrix(0.544639,-35.4133,0.0198617,0.544639,1068.1,86573.7)">
            <path d="M2450.79,1753.94L2393.45,1753.94" style="fill:none;stroke:black;stroke-width:0.04px;"/>
        </g>
        <g transform="matrix(0.529919,-35.8092,0.0200838,0.529919,1103.36,87558.6)">
            <path d="M2450.79,1753.94L2393.45,1753.94" style="fill:none;stroke:black;stroke-width:0.04px;"/>
        </g>
        <g transform="matrix(0.515038,-36.1943,0.0202998,0.515038,1139.03,88517.4)">
            <path d="M2450.79,1753.94L2393.45,1753.94" style="fill:none;stroke:black;stroke-width:0.04px;"/>
        </g>
        <g transform="matrix(0.5,-36.5683,0.0205096,0.5,1175.09,89449.7)">
            <path d="M2450.79,1753.94L2393.45,1753.94" style="fill:none;stroke:black;stroke-width:0.29px;"/>
        </g>
        <g transform="matrix(0.48481,-36.9312,0.0207131,0.48481,1211.52,90355.3)">
            <path d="M2450.79,1753.94L2393.45,1753.94" style="fill:none;stroke:black;stroke-width:0.04px;"/>
        </g>
        <g transform="matrix(0.469472,-37.2829,0.0209103,0.469472,1248.33,91234)">
            <path d="M2450.79,1753.94L2393.45,1753.94" style="fill:none;stroke:black;stroke-width:0.04px;"/>
        </g>
        <g transform="matrix(0.45399,-37.6232,0.0211012,0.45399,1285.49,92085.4)">
            <path d="M2450.79,1753.94L2393.45,1753.94" style="fill:none;stroke:black;stroke-width:0.04px;"/>
        </g>
        <g transform="matrix(0.438371,-37.952,0.0212856,0.438371,1323,92909.2)">
            <path d="M2450.79,1753.94L2393.45,1753.94" style="fill:none;stroke:black;stroke-width:0.04px;"/>
        </g>
        <g transform="matrix(0.422618,-38.2693,0.0214635,0.422618,1360.84,93705.3)">
            <path d="M2450.79,1753.94L2393.45,1753.94" style="fill:none;stroke:black;stroke-width:0.15px;"/>
        </g>
        <g transform="matrix(0.406737,-38.5749,0.0216349,0.406737,1399.01,94473.4)">
            <path d="M2450.79,1753.94L2393.45,1753.94" style="fill:none;stroke:black;stroke-width:0.04px;"/>
        </g>
        <g transform="matrix(0.390731,-38.8687,0.0217998,0.390731,1437.48,95213.3)">
            <path d="M2450.79,1753.94L2393.45,1753.94" style="fill:none;stroke:black;stroke-width:0.04px;"/>
        </g>
        <g transform="matrix(0.374607,-39.1508,0.0219579,0.374607,1476.26,95924.6)">
            <path d="M2450.79,1753.94L2393.45,1753.94" style="fill:none;stroke:black;stroke-width:0.04px;"/>
        </g>
        <g transform="matrix(0.358368,-39.4209,0.0221094,0.358368,1515.33,96607.3)">
            <path d="M2450.79,1753.94L2393.45,1753.94" style="fill:none;stroke:black;stroke-width:0.04px;"/>
        </g>
        <g transform="matrix(0.34202,-39.679,0.0222542,0.34202,1554.67,97261.1)">
            <path d="M2450.79,1753.94L2393.45,1753.94" style="fill:none;stroke:black;stroke-width:0.29px;"/>
        </g>
        <g transform="matrix(0.325568,-39.925,0.0223921,0.325568,1594.28,97885.8)">
            <path d="M2450.79,1753.94L2393.45,1753.94" style="fill:none;stroke:black;stroke-width:0.04px;"/>
        </g>
        <g transform="matrix(0.309017,-40.1588,0.0225233,0.309017,1634.14,98481.2)">
            <path d="M2450.79,1753.94L2393.45,1753.94" style="fill:none;stroke:black;stroke-width:0.04px;"/>
        </g>
        <g transform="matrix(0.292372,-40.3804,0.0226476,0.292372,1674.24,99047.2)">
            <path d="M2450.79,1753.94L2393.45,1753.94" style="fill:none;stroke:black;stroke-width:0.04px;"/>
        </g>
        <g transform="matrix(0.275637,-40.5897,0.022765,0.275637,1714.56,99583.5)">
            <path d="M2450.79,1753.94L2393.45,1753.94" style="fill:none;stroke:black;stroke-width:0.04px;"/>
        </g>
        <g transform="matrix(0.258819,-40.7867,0.0228754,0.258819,1755.1,100090)">
            <path d="M2450.79,1753.94L2393.45,1753.94" style="fill:none;stroke:black;stroke-width:0.15px;"/>
        </g>
        <g transform="matrix(0.241922,-40.9712,0.0229789,0.241922,1795.85,100567)">
            <path d="M2450.79,1753.94L2393.45,1753.94" style="fill:none;stroke:black;stroke-width:0.04px;"/>
        </g>
        <g transform="matrix(0.224951,-41.1432,0.0230754,0.224951,1836.79,101013)">
            <path d="M2450.79,1753.94L2393.45,1753.94" style="fill:none;stroke:black;stroke-width:0.04px;"/>
        </g>
        <g transform="matrix(0.207912,-41.3027,0.0231649,0.207912,1877.9,101429)">
            <path d="M2450.79,1753.94L2393.45,1753.94" style="fill:none;stroke:black;stroke-width:0.04px;"/>
        </g>
        <g transform="matrix(0.190809,-41.4497,0.0232473,0.190809,1919.18,101815)">
            <path d="M2450.79,1753.94L2393.45,1753.94" style="fill:none;stroke:black;stroke-width:0.04px;"/>
        </g>
        <g transform="matrix(0.173648,-41.584,0.0233226,0.173648,1960.61,102171)">
            <path d="M2450.79,1753.94L2393.45,1753.94" style="fill:none;stroke:black;stroke-width:0.29px;"/>
        </g>
        <g transform="matrix(0.156434,-41.7056,0.0233908,0.156434,2002.19,102495)">
            <path d="M2450.79,1753.94L2393.45,1753.94" style="fill:none;stroke:black;stroke-width:0.04px;"/>
        </g>
        <g transform="matrix(0.139173,-41.8145,0.0234519,0.139173,2043.89,102790)">
            <path d="M2450.79,1753.94L2393.45,1753.94" style="fill:none;stroke:black;stroke-width:0.04px;"/>
        </g>
        <g transform="matrix(0.121869,-41.9107,0.0235059,0.121869,2085.71,103053)">
            <path d="M2450.79,1753.94L2393.45,1753.94" style="fill:none;stroke:black;stroke-width:0.04px;"/>
        </g>
        <g transform="matrix(0.104528,-41.9941,0.0235527,0.104528,2127.63,103285)">
            <path d="M2450.79,1753.94L2393.45,1753.94" style="fill:none;stroke:black;stroke-width:0.04px;"/>
        </g>
        <g transform="matrix(0.0871557,-42.0648,0.0235923,0.0871557,2169.64,103487)">
            <path d="M2450.79,1753.94L2393.45,1753.94" style="fill:none;stroke:black;stroke-width:0.15px;"/>
        </g>
        <g transform="matrix(0.0697565,-42.1226,0.0236247,0.0697565,2211.72,103657)">
            <path d="M2450.79,1753.94L2393.45,1753.94" style="fill:none;stroke:black;stroke-width:0.04px;"/>
        </g>
        <g transform="matrix(0.052336,-42.1676,0.0236499,0.052336,2253.87,103797)">
            <path d="M2450.79,1753.94L2393.45,1753.94" style="fill:none;stroke:black;stroke-width:0.04px;"/>
        </g>
        <g transform="matrix(0.0348995,-42.1997,0.023668,0.0348995,2296.07,103905)">
            <path d="M2450.79,1753.94L2393.45,1753.94" style="fill:none;stroke:black;stroke-width:0.04px;"/>
        </g>
        <g transform="matrix(0.0174524,-42.219,0.0236788,0.0174524,2338.31,103983)">
            <path d="M2450.79,1753.94L2393.45,1753.94" style="fill:none;stroke:black;stroke-width:0.04px;"/>
        </g>
        <g transform="matrix(1.73532e-16,-42.2255,0.0236824,1.01308e-15,2380.58,104029)">
            <path d="M2450.79,1753.94L2393.45,1753.94" style="fill:none;stroke:black;stroke-width:0.04px;"/>
        </g>
        <g transform="matrix(-1.83697e-16,42.2255,-0.0236824,-1.83697e-16,2463.65,-100521)">
            <path d="M2450.79,1753.94L2393.45,1753.94" style="fill:none;stroke:black;stroke-width:0.29px;"/>
        </g>
        <g transform="matrix(0.0174524,42.219,-0.0236788,0.0174524,2421.38,-100536)">
            <path d="M2450.79,1753.94L2393.45,1753.94" style="fill:none;stroke:black;stroke-width:0.04px;"/>
        </g>
        <g transform="matrix(0.0348995,42.1997,-0.023668,0.0348995,2379.1,-100520)">
            <path d="M2450.79,1753.94L2393.45,1753.94" style="fill:none;stroke:black;stroke-width:0.04px;"/>
        </g>
        <g transform="matrix(0.052336,42.1676,-0.0236499,0.052336,2336.83,-100473)">
            <path d="M2450.79,1753.94L2393.45,1753.94" style="fill:none;stroke:black;stroke-width:0.04px;"/>
        </g>
        <g transform="matrix(0.0697565,42.1226,-0.0236247,0.0697565,2294.59,-100394)">
            <path d="M2450.79,1753.94L2393.45,1753.94" style="fill:none;stroke:black;stroke-width:0.04px;"/>
        </g>
        <g transform="matrix(0.0871557,42.0648,-0.0235923,0.0871557,2252.39,-100285)">
            <path d="M2450.79,1753.94L2393.45,1753.94" style="fill:none;stroke:black;stroke-width:0.15px;"/>
        </g>
        <g transform="matrix(0.104528,41.9941,-0.0235527,0.104528,2210.25,-100144)">
            <path d="M2450.79,1753.94L2393.45,1753.94" style="fill:none;stroke:black;stroke-width:0.04px;"/>
        </g>
        <g transform="matrix(0.121869,41.9107,-0.0235059,0.121869,2168.16,-99972.5)">
            <path d="M2450.79,1753.94L2393.45,1753.94" style="fill:none;stroke:black;stroke-width:0.04px;"/>
        </g>
        <g transform="matrix(0.139173,41.8145,-0.0234519,0.139173,2126.16,-99769.8)">
            <path d="M2450.79,1753.94L2393.45,1753.94" style="fill:none;stroke:black;stroke-width:0.04px;"/>
        </g>
        <g transform="matrix(0.156434,41.7056,-0.0233908,0.156434,2084.24,-99536.3)">
            <path d="M2450.79,1753.94L2393.45,1753.94" style="fill:none;stroke:black;stroke-width:0.04px;"/>
        </g>
        <g transform="matrix(0.173648,41.584,-0.0233226,0.173648,2042.43,-99271.8)">
            <path d="M2450.79,1753.94L2393.45,1753.94" style="fill:none;stroke:black;stroke-width:0.29px;"/>
        </g>
        <g transform="matrix(0.190809,41.4497,-0.0232473,0.190809,2000.73,-98976.7)">
            <path d="M2450.79,1753.94L2393.45,1753.94" style="fill:none;stroke:black;stroke-width:0.04px;"/>
        </g>
        <g transform="matrix(0.207912,41.3027,-0.0231649,0.207912,1959.16,-98650.8)">
            <path d="M2450.79,1753.94L2393.45,1753.94" style="fill:none;stroke:black;stroke-width:0.04px;"/>
        </g>
        <g transform="matrix(0.224951,41.1432,-0.0230754,0.224951,1917.73,-98294.3)">
            <path d="M2450.79,1753.94L2393.45,1753.94" style="fill:none;stroke:black;stroke-width:0.04px;"/>
        </g>
        <g transform="matrix(0.241922,40.9712,-0.0229789,0.241922,1876.46,-97907.4)">
            <path d="M2450.79,1753.94L2393.45,1753.94" style="fill:none;stroke:black;stroke-width:0.04px;"/>
        </g>
        <g transform="matrix(0.258819,40.7867,-0.0228754,0.258819,1835.35,-97490.1)">
            <path d="M2450.79,1753.94L2393.45,1753.94" style="fill:none;stroke:black;stroke-width:0.15px;"/>
        </g>
        <g transform="matrix(0.275637,40.5897,-0.022765,0.275637,1794.42,-97042.6)">
            <path d="M2450.79,1753.94L2393.45,1753.94" style="fill:none;stroke:black;stroke-width:0.04px;"/>
        </g>
        <g transform="matrix(0.292372,40.3804,-0.0226476,0.292372,1753.68,-96564.9)">
            <path d="M2450.79,1753.94L2393.45,1753.94" style="fill:none;stroke:black;stroke-width:0.04px;"/>
        </g>
        <g transform="matrix(0.309017,40.1588,-0.0225233,0.309017,1713.15,-96057.4)">
            <path d="M2450.79,1753.94L2393.45,1753.94" style="fill:none;stroke:black;stroke-width:0.04px;"/>
        </g>
        <g transform="matrix(0.325568,39.925,-0.0223921,0.325568,1672.83,-95520)">
            <path d="M2450.79,1753.94L2393.45,1753.94" style="fill:none;stroke:black;stroke-width:0.04px;"/>
        </g>
        <g transform="matrix(0.34202,39.679,-0.0222542,0.34202,1632.74,-94953)">
            <path d="M2450.79,1753.94L2393.45,1753.94" style="fill:none;stroke:black;stroke-width:0.29px;"/>
        </g>
        <g transform="matrix(0.358368,39.4209,-0.0221094,0.358368,1592.89,-94356.6)">
            <path d="M2450.79,1753.94L2393.45,1753.94" style="fill:none;stroke:black;stroke-width:0.04px;"/>
        </g>
        <g transform="matrix(0.374607,39.1508,-0.0219579,0.374607,1553.29,-93730.8)">
            <path d="M2450.79,1753.94L2393.45,1753.94" style="fill:none;stroke:black;stroke-width:0.04px;"/>
        </g>
        <g transform="matrix(0.390731,38.8687,-0.0217998,0.390731,1513.96,-93076)">
            <path d="M2450.79,1753.94L2393.45,1753.94" style="fill:none;stroke:black;stroke-width:0.04px;"/>
        </g>
        <g transform="matrix(0.406737,38.5749,-0.0216349,0.406737,1474.9,-92392.3)">
            <path d="M2450.79,1753.94L2393.45,1753.94" style="fill:none;stroke:black;stroke-width:0.04px;"/>
        </g>
        <g transform="matrix(0.422618,38.2693,-0.0214635,0.422618,1436.13,-91679.9)">
            <path d="M2450.79,1753.94L2393.45,1753.94" style="fill:none;stroke:black;stroke-width:0.15px;"/>
        </g>
        <g transform="matrix(0.438371,37.952,-0.0212856,0.438371,1397.66,-90939.1)">
            <path d="M2450.79,1753.94L2393.45,1753.94" style="fill:none;stroke:black;stroke-width:0.04px;"/>
        </g>
        <g transform="matrix(0.45399,37.6232,-0.0211012,0.45399,1359.51,-90170)">
            <path d="M2450.79,1753.94L2393.45,1753.94" style="fill:none;stroke:black;stroke-width:0.04px;"/>
        </g>
        <g transform="matrix(0.469472,37.2829,-0.0209103,0.469472,1321.68,-89373)">
            <path d="M2450.79,1753.94L2393.45,1753.94" style="fill:none;stroke:black;stroke-width:0.04px;"/>
        </g>
        <g transform="matrix(0.48481,36.9312,-0.0207131,0.48481,1284.18,-88548.1)">
            <path d="M2450.79,1753.94L2393.45,1753.94" style="fill:none;stroke:black;stroke-width:0.04px;"/>
        </g>
        <g transform="matrix(0.5,36.5683,-0.0205096,0.5,1247.03,-87695.8)">
            <path d="M2450.79,1753.94L2393.45,1753.94" style="fill:none;stroke:black;stroke-width:0.29px;"/>
        </g>
        <g transform="matrix(0.515038,36.1943,-0.0202998,0.515038,1210.24,-86816.2)">
            <path d="M2450.79,1753.94L2393.45,1753.94" style="fill:none;stroke:black;stroke-width:0.04px;"/>
        </g>
        <g transform="matrix(0.529919,35.8092,-0.0200838,0.529919,1173.82,-85909.6)">
            <path d="M2450.79,1753.94L2393.45,1753.94" style="fill:none;stroke:black;stroke-width:0.04px;"/>
        </g>
        <g transform="matrix(0.544639,35.4133,-0.0198617,0.544639,1137.77,-84976.4)">
            <path d="M2450.79,1753.94L2393.45,1753.94" style="fill:none;stroke:black;stroke-width:0.04px;"/>
        </g>
        <g transform="matrix(0.559193,35.0065,-0.0196336,0.559193,1102.12,-84016.7)">
            <path d="M2450.79,1753.94L2393.45,1753.94" style="fill:none;stroke:black;stroke-width:0.04px;"/>
        </g>
        <g transform="matrix(0.573576,34.5891,-0.0193995,0.573576,1066.87,-83030.9)">
            <path d="M2450.79,1753.94L2393.45,1753.94" style="fill:none;stroke:black;stroke-width:0.15px;"/>
        </g>
        <g transform="matrix(0.587785,34.1611,-0.0191595,0.587785,1032.04,-82019.2)">
            <path d="M2450.79,1753.94L2393.45,1753.94" style="fill:none;stroke:black;stroke-width:0.04px;"/>
        </g>
        <g transform="matrix(0.601815,33.7228,-0.0189136,0.601815,997.624,-80982.1)">
            <path d="M2450.79,1753.94L2393.45,1753.94" style="fill:none;stroke:black;stroke-width:0.04px;"/>
        </g>
        <g transform="matrix(0.615661,33.2741,-0.018662,0.615661,963.645,-79919.7)">
            <path d="M2450.79,1753.94L2393.45,1753.94" style="fill:none;stroke:black;stroke-width:0.04px;"/>
        </g>
        <g transform="matrix(0.62932,32.8153,-0.0184047,0.62932,930.11,-78832.5)">
            <path d="M2450.79,1753.94L2393.45,1753.94" style="fill:none;stroke:black;stroke-width:0.04px;"/>
        </g>
        <g transform="matrix(0.642788,32.3466,-0.0181418,0.642788,897.03,-77720.7)">
            <path d="M2450.79,1753.94L2393.45,1753.94" style="fill:none;stroke:black;stroke-width:0.29px;"/>
        </g>
        <g transform="matrix(0.656059,31.868,-0.0178733,0.656059,864.414,-76584.7)">
            <path d="M2450.79,1753.94L2393.45,1753.94" style="fill:none;stroke:black;stroke-width:0.04px;"/>
        </g>
        <g transform="matrix(0.669131,31.3796,-0.0175994,0.669131,832.273,-75424.8)">
            <path d="M2450.79,1753.94L2393.45,1753.94" style="fill:none;stroke:black;stroke-width:0.04px;"/>
        </g>
        <g transform="matrix(0.681998,30.8817,-0.0173202,0.681998,800.616,-74241.4)">
            <path d="M2450.79,1753.94L2393.45,1753.94" style="fill:none;stroke:black;stroke-width:0.04px;"/>
        </g>
        <g transform="matrix(0.694658,30.3745,-0.0170357,0.694658,769.453,-73034.9)">
            <path d="M2450.79,1753.94L2393.45,1753.94" style="fill:none;stroke:black;stroke-width:0.04px;"/>
        </g>
        <g transform="matrix(0.707107,29.8579,-0.016746,0.707107,738.793,-71805.6)">
            <path d="M2450.79,1753.94L2393.45,1753.94" style="fill:none;stroke:black;stroke-width:0.15px;"/>
        </g>
        <g transform="matrix(0.71934,29.3323,-0.0164512,0.71934,708.646,-70553.9)">
            <path d="M2450.79,1753.94L2393.45,1753.94" style="fill:none;stroke:black;stroke-width:0.04px;"/>
        </g>
        <g transform="matrix(0.731354,28.7977,-0.0161514,0.731354,679.021,-69280.2)">
            <path d="M2450.79,1753.94L2393.45,1753.94" style="fill:none;stroke:black;stroke-width:0.04px;"/>
        </g>
        <g transform="matrix(0.743145,28.2543,-0.0158466,0.743145,649.927,-67984.8)">
            <path d="M2450.79,1753.94L2393.45,1753.94" style="fill:none;stroke:black;stroke-width:0.04px;"/>
        </g>
        <g transform="matrix(0.75471,27.7024,-0.015537,0.75471,621.373,-66668.2)">
            <path d="M2450.79,1753.94L2393.45,1753.94" style="fill:none;stroke:black;stroke-width:0.04px;"/>
        </g>
        <g transform="matrix(0.766044,27.142,-0.0152227,0.766044,593.367,-65330.8)">
            <path d="M2450.79,1753.94L2393.45,1753.94" style="fill:none;stroke:black;stroke-width:0.29px;"/>
        </g>
        <g transform="matrix(0.777146,26.5733,-0.0149038,0.777146,565.919,-63972.9)">
            <path d="M2450.79,1753.94L2393.45,1753.94" style="fill:none;stroke:black;stroke-width:0.04px;"/>
        </g>
        <g transform="matrix(0.788011,25.9966,-0.0145803,0.788011,539.036,-62595)">
            <path d="M2450.79,1753.94L2393.45,1753.94" style="fill:none;stroke:black;stroke-width:0.04px;"/>
        </g>
        <g transform="matrix(0.798636,25.4119,-0.0142524,0.798636,512.726,-61197.5)">
            <path d="M2450.79,1753.94L2393.45,1753.94" style="fill:none;stroke:black;stroke-width:0.04px;"/>
        </g>
        <g transform="matrix(0.809017,24.8195,-0.0139202,0.809017,486.998,-59780.8)">
            <path d="M2450.79,1753.94L2393.45,1753.94" style="fill:none;stroke:black;stroke-width:0.04px;"/>
        </g>
        <g transform="matrix(0.819152,24.2195,-0.0135837,0.819152,461.86,-58345.3)">
            <path d="M2450.79,1753.94L2393.45,1753.94" style="fill:none;stroke:black;stroke-width:0.15px;"/>
        </g>
        <g transform="matrix(0.829038,23.6122,-0.013243,0.829038,437.318,-56891.6)">
            <path d="M2450.79,1753.94L2393.45,1753.94" style="fill:none;stroke:black;stroke-width:0.04px;"/>
        </g>
        <g transform="matrix(0.838671,22.9976,-0.0128984,0.838671,413.382,-55420)">
            <path d="M2450.79,1753.94L2393.45,1753.94" style="fill:none;stroke:black;stroke-width:0.04px;"/>
        </g>
        <g transform="matrix(0.848048,22.3761,-0.0125498,0.848048,390.057,-53931)">
            <path d="M2450.79,1753.94L2393.45,1753.94" style="fill:none;stroke:black;stroke-width:0.04px;"/>
        </g>
        <g transform="matrix(0.857167,21.7477,-0.0121973,0.857167,367.351,-52425)">
            <path d="M2450.79,1753.94L2393.45,1753.94" style="fill:none;stroke:black;stroke-width:0.04px;"/>
        </g>
        <g transform="matrix(0.866025,21.1127,-0.0118412,0.866025,345.271,-50902.5)">
            <path d="M2450.79,1753.94L2393.45,1753.94" style="fill:none;stroke:black;stroke-width:0.29px;"/>
        </g>
        <g transform="matrix(0.87462,20.4713,-0.0114815,0.87462,323.823,-49364)">
            <path d="M2450.79,1753.94L2393.45,1753.94" style="fill:none;stroke:black;stroke-width:0.04px;"/>
        </g>
        <g transform="matrix(0.882948,19.8237,-0.0111182,0.882948,303.015,-47809.9)">
            <path d="M2450.79,1753.94L2393.45,1753.94" style="fill:none;stroke:black;stroke-width:0.04px;"/>
        </g>
        <g transform="matrix(0.891007,19.17,-0.0107516,0.891007,282.853,-46240.7)">
            <path d="M2450.79,1753.94L2393.45,1753.94" style="fill:none;stroke:black;stroke-width:0.04px;"/>
        </g>
        <g transform="matrix(0.898794,18.5104,-0.0103817,0.898794,263.341,-44656.9)">
            <path d="M2450.79,1753.94L2393.45,1753.94" style="fill:none;stroke:black;stroke-width:0.04px;"/>
        </g>
        <g transform="matrix(0.906308,17.8453,-0.0100086,0.906308,244.488,-43059)">
            <path d="M2450.79,1753.94L2393.45,1753.94" style="fill:none;stroke:black;stroke-width:0.15px;"/>
        </g>
        <g transform="matrix(0.913545,17.1746,-0.0096325,0.913545,226.298,-41447.4)">
            <path d="M2450.79,1753.94L2393.45,1753.94" style="fill:none;stroke:black;stroke-width:0.04px;"/>
        </g>
        <g transform="matrix(0.920505,16.4988,-0.00925345,0.920505,208.776,-39822.6)">
            <path d="M2450.79,1753.94L2393.45,1753.94" style="fill:none;stroke:black;stroke-width:0.04px;"/>
        </g>
        <g transform="matrix(0.927184,15.8179,-0.00887158,0.927184,191.929,-38185.2)">
            <path d="M2450.79,1753.94L2393.45,1753.94" style="fill:none;stroke:black;stroke-width:0.04px;"/>
        </g>
        <g transform="matrix(0.93358,15.1323,-0.00848701,0.93358,175.762,-36535.6)">
            <path d="M2450.79,1753.94L2393.45,1753.94" style="fill:none;stroke:black;stroke-width:0.04px;"/>
        </g>
        <g transform="matrix(0.939693,14.442,-0.00809986,0.939693,160.278,-34874.3)">
            <path d="M2450.79,1753.94L2393.45,1753.94" style="fill:none;stroke:black;stroke-width:0.29px;"/>
        </g>
        <g transform="matrix(0.945519,13.7473,-0.00771023,0.945519,145.484,-33201.9)">
            <path d="M2450.79,1753.94L2393.45,1753.94" style="fill:none;stroke:black;stroke-width:0.04px;"/>
        </g>
        <g transform="matrix(0.951057,13.0484,-0.00731826,0.951057,131.383,-31518.9)">
            <path d="M2450.79,1753.94L2393.45,1753.94" style="fill:none;stroke:black;stroke-width:0.04px;"/>
        </g>
        <g transform="matrix(0.956305,12.3455,-0.00692406,0.956305,117.979,-29825.7)">
            <path d="M2450.79,1753.94L2393.45,1753.94" style="fill:none;stroke:black;stroke-width:0.04px;"/>
        </g>
        <g transform="matrix(0.961262,11.6389,-0.00652775,0.961262,105.278,-28122.9)">
            <path d="M2450.79,1753.94L2393.45,1753.94" style="fill:none;stroke:black;stroke-width:0.04px;"/>
        </g>
        <g transform="matrix(0.965926,10.9288,-0.00612945,0.965926,93.2823,-26411)">
            <path d="M2450.79,1753.94L2393.45,1753.94" style="fill:none;stroke:black;stroke-width:0.15px;"/>
        </g>
        <g transform="matrix(0.970296,10.2153,-0.00572929,0.970296,81.996,-24690.5)">
            <path d="M2450.79,1753.94L2393.45,1753.94" style="fill:none;stroke:black;stroke-width:0.04px;"/>
        </g>
        <g transform="matrix(0.97437,9.49866,-0.00532738,0.97437,71.4226,-22961.9)">
            <path d="M2450.79,1753.94L2393.45,1753.94" style="fill:none;stroke:black;stroke-width:0.04px;"/>
        </g>
        <g transform="matrix(0.978148,8.77917,-0.00492385,0.978148,61.5652,-21225.8)">
            <path d="M2450.79,1753.94L2393.45,1753.94" style="fill:none;stroke:black;stroke-width:0.04px;"/>
        </g>
        <g transform="matrix(0.981627,8.057,-0.00451881,0.981627,52.4268,-19482.8)">
            <path d="M2450.79,1753.94L2393.45,1753.94" style="fill:none;stroke:black;stroke-width:0.04px;"/>
        </g>
        <g transform="matrix(0.984808,7.33237,-0.0041124,0.984808,44.0103,-17733.2)">
            <path d="M2450.79,1753.94L2393.45,1753.94" style="fill:none;stroke:black;stroke-width:0.29px;"/>
        </g>
        <g transform="matrix(0.987688,6.60552,-0.00370474,0.987688,36.3182,-15977.7)">
            <path d="M2450.79,1753.94L2393.45,1753.94" style="fill:none;stroke:black;stroke-width:0.04px;"/>
        </g>
        <g transform="matrix(0.990268,5.87665,-0.00329595,0.990268,29.3528,-14216.9)">
            <path d="M2450.79,1753.94L2393.45,1753.94" style="fill:none;stroke:black;stroke-width:0.04px;"/>
        </g>
        <g transform="matrix(0.992546,5.14599,-0.00288616,0.992546,23.1162,-12451.1)">
            <path d="M2450.79,1753.94L2393.45,1753.94" style="fill:none;stroke:black;stroke-width:0.04px;"/>
        </g>
        <g transform="matrix(0.994522,4.41376,-0.00247548,0.994522,17.6105,-10681)">
            <path d="M2450.79,1753.94L2393.45,1753.94" style="fill:none;stroke:black;stroke-width:0.04px;"/>
        </g>
        <g transform="matrix(0.996195,3.68019,-0.00206406,0.996195,12.8371,-8907.18)">
            <path d="M2450.79,1753.94L2393.45,1753.94" style="fill:none;stroke:black;stroke-width:0.15px;"/>
        </g>
        <g transform="matrix(0.997564,2.9455,-0.001652,0.997564,8.79766,-7130.07)">
            <path d="M2450.79,1753.94L2393.45,1753.94" style="fill:none;stroke:black;stroke-width:0.04px;"/>
        </g>
        <g transform="matrix(0.99863,2.20991,-0.00123944,0.99863,5.49333,-5350.26)">
            <path d="M2450.79,1753.94L2393.45,1753.94" style="fill:none;stroke:black;stroke-width:0.04px;"/>
        </g>
        <g transform="matrix(0.999391,1.47365,-0.000826504,0.999391,2.92512,-3568.28)">
            <path d="M2450.79,1753.94L2393.45,1753.94" style="fill:none;stroke:black;stroke-width:0.04px;"/>
        </g>
        <g transform="matrix(0.999848,0.736936,-0.000413315,0.999848,1.09383,-1784.68)">
            <path d="M2450.79,1753.94L2393.45,1753.94" style="fill:none;stroke:black;stroke-width:0.04px;"/>
        </g>
        <path d="M2450.79,1753.94L2393.45,1753.94" style="fill:none;stroke:black;stroke-width:0.29px;"/>
    </g>
    <path id="Verdecker-Aussen" serif:id="Verdecker Aussen" d="M1240.16,614.173C1869.21,614.173 2379.92,1124.88 2379.92,1753.94C2379.92,2382.99 1869.21,2893.7 1240.16,2893.7C611.105,2893.7 100.394,2382.99 100.394,1753.94C100.394,1124.88 611.105,614.173 1240.16,614.173ZM1240.16,1183.57C1554.95,1183.57 1810.52,1439.14 1810.52,1753.94C1810.52,2068.73 1554.95,2324.3 1240.16,2324.3C925.364,2324.3 669.792,2068.73 669.792,1753.94C669.792,1439.14 925.364,1183.57 1240.16,1183.57Z" style="fill:white;"/>
    <g id="Verdecker-Innen" serif:id="Verdecker Innen" transform="matrix(1.72465,0,0,1.62407,-340.017,-487.966)">
        <ellipse cx="916.23" cy="1380.42" rx="323.928" ry="343.988" style="fill:white;"/>
    </g>
    <g id="_30-Grad" serif:id="30 Grad" transform="matrix(0.95122,0,0,0.95122,60.4955,85.5579)">
        <g transform="matrix(-1.73205,-1,-0.5,0.866025,5313.58,2080.46)">
            <path d="M1240.16,1753.94L2450.79,1753.94" style="fill:none;stroke:black;stroke-width:0.42px;"/>
        </g>
        <g transform="matrix(-1,-1.73205,-0.866025,0.5,4604.58,4073.42)">
            <path d="M1240.16,1753.94L2450.79,1753.94" style="fill:none;stroke:black;stroke-width:0.42px;"/>
        </g>
        <g transform="matrix(2,0,0,1,-2450.79,0)">
            <path d="M1240.16,1753.94L2450.79,1753.94" style="fill:none;stroke:black;stroke-width:0.42px;"/>
        </g>
        <g transform="matrix(1.73205,-1,0.5,0.866025,-2833.26,2080.46)">
            <path d="M1240.16,1753.94L2450.79,1753.94" style="fill:none;stroke:black;stroke-width:0.42px;"/>
        </g>
        <g transform="matrix(1,-1.73205,0.866025,0.5,-2124.27,4073.42)">
            <path d="M1240.16,1753.94L2450.79,1753.94" style="fill:none;stroke:black;stroke-width:0.42px;"/>
        </g>
        <g transform="matrix(3.33067e-16,-2,1,1.66533e-16,-513.78,5444.88)">
            <path d="M1240.16,1753.94L2450.79,1753.94" style="fill:none;stroke:black;stroke-width:0.42px;"/>
        </g>
    </g>
    <g id="Verdecker-30" serif:id="Verdecker 30" transform="matrix(1.45848,0,0,1.37342,-96.142,-141.964)">
        <ellipse cx="916.23" cy="1380.42" rx="323.928" ry="343.988" style="fill:white;"/>
    </g>
    <g id="Zentrum">
        <path d="M1216.12,1776.45L1264.19,1731.43" style="fill:none;stroke:black;stroke-width:0.83px;"/>
        <g transform="matrix(1,0,0,1,-2.67183,2.67473)">
            <path d="M1218.8,1728.75L1266.86,1773.77" style="fill:none;stroke:black;stroke-width:0.83px;"/>
        </g>
        <g transform="matrix(0.359698,0,0,0.359698,791.066,1116.13)">
            <path d="M1248.52,1674.67C1302.89,1674.67 1347.03,1718.81 1347.03,1773.18C1347.03,1827.55 1302.89,1871.69 1248.52,1871.69C1194.16,1871.69 1150.02,1827.55 1150.02,1773.18C1150.02,1718.81 1194.16,1674.67 1248.52,1674.67ZM1248.52,1762.93C1254.18,1762.93 1258.78,1767.52 1258.78,1773.18C1258.78,1778.84 1254.18,1783.43 1248.52,1783.43C1242.87,1783.43 1238.27,1778.84 1238.27,1773.18C1238.27,1767.52 1242.87,1762.93 1248.52,1762.93Z" style="fill:white;"/>
        </g>
    </g>
    <g id="Kreis-Innen-2" serif:id="Kreis Innen 2" transform="matrix(1.45848,0,0,1.37342,-96.142,-141.964)">
        <ellipse cx="916.23" cy="1380.42" rx="323.928" ry="343.988" style="fill:none;stroke:rgb(35,31,32);stroke-width:0.59px;"/>
    </g>
    <g id="Kreis-Innen" serif:id="Kreis Innen" transform="matrix(1.76078,0,0,1.6581,-373.122,-534.935)">
        <ellipse cx="916.23" cy="1380.42" rx="323.928" ry="343.988" style="fill:none;stroke:rgb(35,31,32);stroke-width:1.71px;"/>
    </g>
    <g id="Kreis-Aussen" serif:id="Kreis Aussen" transform="matrix(1.21875,0,0,1.22332,-271.284,241.145)">
        <ellipse cx="1240.16" cy="1236.63" rx="944.882" ry="941.351" style="fill:none;stroke:rgb(35,31,32);stroke-width:0.51px;"/>
    </g>
    <g id="Bisection-Line" serif:id="Bisection Line" transform="matrix(0.566826,-0.823837,0.823837,0.566826,-907.755,1781.45)">
        <path d="M1240.16,1753.94L1538.4,2863.86" style="fill:none;stroke:rgb(251,0,0);stroke-width:6.25px;"/>
    </g>
    <g id="Second-Line" serif:id="Second Line" transform="matrix(0.0186262,-0.999827,0.999827,0.0186262,-536.575,2961.21)">
        <path d="M1240.16,1753.94L1538.4,2863.86" style="fill:none;stroke:black;stroke-width:6.25px;"/>
    </g>
    <path id="First-Line" serif:id="First Line" d="M1240.16,1753.94L1538.4,2863.86" style="fill:none;stroke:black;stroke-width:6.25px;"/>
</svg>
